<?xml version="1.0" standalone="no"?>
<!DOCTYPE svg PUBLIC "-//W3C//DTD SVG 20010904//EN"
 "http://www.w3.org/TR/2001/REC-SVG-20010904/DTD/svg10.dtd">
<svg version="1.0" xmlns="http://www.w3.org/2000/svg"
 width="591.000000pt" height="591.000000pt" viewBox="0 0 591.000000 591.000000"
 preserveAspectRatio="xMidYMid meet">
<metadata>
Created by potrace 1.11, written by Peter Selinger 2001-2013
</metadata>
<g transform="translate(0.000000,591.000000) scale(0.100000,-0.100000)"
fill="#000000" stroke="none">
<path d="M2095 5284 c-65 -34 -134 -124 -155 -203 -17 -65 1 -119 61 -182 60
-63 68 -103 44 -221 -29 -146 -104 -335 -279 -707 -43 -90 -75 -165 -72 -168
3 -3 33 4 67 16 34 11 64 19 66 18 1 -2 -110 -185 -247 -406 -138 -221 -250
-404 -250 -407 0 -2 35 -1 77 3 l77 6 -24 -34 c-13 -19 -125 -168 -247 -331
-123 -164 -223 -300 -223 -304 0 -6 45 0 98 13 21 5 20 0 -17 -48 -89 -117
-164 -294 -222 -522 -29 -116 -69 -337 -84 -460 l-7 -58 52 26 c29 15 54 25
55 23 2 -2 -1 -37 -7 -78 -13 -97 -4 -233 25 -345 l22 -89 90 -80 c739 -654
1742 -896 2700 -651 455 116 912 364 1253 679 59 56 61 59 82 147 25 109 35
261 22 349 -5 36 -8 66 -7 68 2 2 26 -8 54 -22 46 -24 51 -24 51 -9 0 33 -48
326 -70 428 -50 231 -153 483 -243 598 -36 46 -38 49 -16 44 13 -3 44 -9 68
-13 l43 -7 -242 324 c-134 178 -248 330 -254 338 -9 12 1 13 67 8 42 -4 77 -5
77 -2 0 2 -112 186 -250 407 -137 222 -246 404 -242 406 4 1 34 -7 67 -18 32
-11 60 -18 62 -16 3 2 -42 105 -100 228 -164 350 -230 525 -257 677 -17 93 -7
128 50 189 45 48 70 99 70 144 0 40 -44 131 -88 179 -106 118 -209 107 -382
-40 -46 -39 -100 -76 -120 -81 -58 -16 -126 -12 -182 12 -49 21 -69 23 -248
23 -178 0 -200 -2 -255 -22 -116 -44 -193 -28 -298 64 -127 111 -234 148 -312
107z m580 -550 c23 -9 48 -62 41 -90 -23 -92 -156 -78 -156 16 0 59 57 96 115
74z m649 -15 c56 -44 20 -139 -53 -139 -54 0 -95 66 -70 112 27 51 78 63 123
27z m-264 -127 c48 -49 79 -93 113 -161 l47 -93 0 -188 c0 -178 -1 -189 -22
-220 -49 -71 -61 -75 -243 -75 -182 0 -194 4 -243 76 -22 33 -23 39 -20 225
l3 191 44 89 c32 64 63 107 110 156 60 61 71 68 106 68 35 0 46 -7 105 -68z
m-635 -886 c28 -13 76 -46 108 -74 52 -46 105 -72 148 -72 9 0 45 10 80 22 53
17 87 21 194 21 107 0 141 -4 194 -21 35 -12 73 -22 85 -22 43 1 94 28 158 82
115 98 193 110 268 42 68 -62 99 -159 69 -217 -6 -12 -37 -47 -68 -77 -31 -30
-67 -76 -79 -102 -65 -139 -43 -353 63 -618 52 -131 99 -223 212 -412 122
-207 212 -392 262 -544 58 -175 72 -250 78 -431 l6 -163 -49 0 c-27 0 -90 -6
-140 -14 -386 -58 -589 -288 -571 -646 5 -92 17 -153 42 -212 6 -14 2 -15 -35
-7 -194 44 -353 270 -337 479 8 103 40 175 111 246 70 69 140 106 259 136 45
11 83 22 85 23 2 2 -19 47 -46 101 -107 213 -202 487 -218 624 -6 58 8 130 27
130 4 0 15 13 24 30 13 26 14 34 1 63 -19 46 -54 77 -87 77 -16 0 -47 -15 -74
-36 -68 -51 -86 -56 -152 -39 -72 19 -104 19 -176 0 -66 -17 -84 -12 -152 39
-56 43 -92 46 -128 10 -37 -37 -48 -74 -31 -112 7 -18 17 -32 22 -32 15 0 32
-49 32 -90 0 -126 -141 -535 -247 -718 -14 -24 -24 -44 -22 -46 2 -2 42 -13
89 -25 111 -28 177 -61 245 -123 136 -124 162 -318 67 -508 -53 -106 -174
-205 -282 -229 -37 -8 -41 -7 -35 7 26 61 37 120 42 212 17 358 -185 588 -571
646 -50 8 -113 14 -140 14 l-49 0 6 163 c4 122 12 188 30 267 50 209 139 418
281 655 212 353 306 579 337 810 21 161 -15 280 -112 375 -31 30 -62 65 -68
77 -47 93 61 261 169 263 14 0 48 -11 75 -24z m420 -1872 c18 -19 16 -33 -8
-48 -18 -11 -47 0 -54 21 -4 12 23 43 37 43 5 0 16 -7 25 -16z m269 0 c18 -18
18 -17 10 -38 -10 -27 -74 -14 -74 15 0 10 30 39 40 39 5 0 16 -7 24 -16z
m-96 -96 c2 -11 -5 -19 -21 -23 -14 -4 -29 -16 -34 -28 l-10 -22 -7 22 c-4 13
-18 26 -32 29 -23 6 -31 23 -17 38 4 4 32 6 63 4 42 -2 56 -7 58 -20z"/>
<path d="M2791 4214 c-17 -22 -21 -41 -21 -101 l0 -74 47 -50 c26 -28 67 -62
91 -76 43 -25 43 -25 82 -8 22 10 65 44 95 76 l55 58 0 74 c0 60 -4 79 -21
101 -20 26 -21 26 -164 26 -143 0 -144 0 -164 -26z"/>
<path d="M2670 3170 c-11 -11 -20 -29 -20 -40 0 -11 9 -29 20 -40 11 -11 29
-20 40 -20 11 0 29 9 40 20 11 11 20 29 20 40 0 11 -9 29 -20 40 -11 11 -29
20 -40 20 -11 0 -29 -9 -40 -20z"/>
<path d="M3160 3170 c-11 -11 -20 -29 -20 -40 0 -27 35 -60 63 -60 29 0 57 29
57 58 0 28 -34 62 -60 62 -11 0 -29 -9 -40 -20z"/>
<path d="M2930 3168 c-36 -13 -68 -45 -111 -111 -88 -134 -120 -330 -71 -424
45 -85 142 -97 183 -22 18 34 -15 113 -57 138 -29 17 -35 26 -32 49 l3 27 110
0 110 0 3 -27 c3 -23 -3 -32 -32 -48 -41 -25 -71 -96 -56 -134 30 -80 137 -70
181 15 44 87 31 226 -35 362 -61 128 -138 196 -196 175z"/>
</g>
</svg>
